# 3ds Max Wavefront OBJ Exporter v0.99 - (c)2007 guruware
# File Created: 02.05.2026 12:24:22

mtllib boomerang.mtl

#
# object boomerang
#

v  36.2119 1.3309 -13.1256
v  35.9734 0.9919 -13.1436
v  35.9029 0.9940 -14.3629
v  36.1274 1.3311 -14.4458
v  35.6476 1.3309 -11.8135
v  35.4435 0.9922 -11.9305
v  0.0000 1.3305 16.1469
v  -3.1168 1.3306 15.8117
v  -3.0707 0.9920 15.5810
v  0.0000 0.9922 15.9117
v  -5.8905 1.3309 15.0095
v  -5.8126 0.9919 14.7876
v  0.0000 1.7301 15.9622
v  -3.0840 1.7295 15.6285
v  -5.8306 1.7236 14.8255
v  -8.9070 1.3311 13.7548
v  -8.8113 0.9918 13.5395
v  0.0000 3.0458 13.3546
v  -2.6957 3.0152 13.1062
v  -5.1478 2.9626 12.4594
v  -8.8295 1.7210 13.5730
v  -7.9934 2.9013 11.3593
v  -11.7795 1.3312 12.1881
v  -11.6669 0.9917 11.9811
v  0.0000 3.2059 10.6074
v  -2.3325 3.1801 10.4273
v  -4.4958 3.1349 9.9240
v  -11.6861 1.7207 12.0134
v  -10.7134 2.8429 9.9677
v  -7.1718 3.0758 8.9777
v  -14.7243 1.3312 10.2451
v  -14.5965 0.9917 10.0471
v  0.0000 2.5556 7.8380
v  -2.0085 2.5474 7.7220
v  -3.9013 2.5347 7.3538
v  -14.6179 1.7207 10.0787
v  -13.5413 2.7829 8.2087
v  -9.7385 3.0157 7.7563
v  -6.4053 2.5111 6.5640
v  -17.5679 1.3312 8.0555
v  -17.4260 0.9917 7.8677
v  0.0000 1.6813 5.7561
v  -1.7925 1.6702 5.6514
v  -3.4869 1.6714 5.3543
v  -17.4494 1.7204 7.8986
v  -16.2810 2.7233 6.2068
v  -12.4443 2.9490 6.1789
v  -8.8154 2.4815 5.5121
v  -5.8519 1.6728 4.6688
v  -20.8077 1.3312 5.2953
v  -20.6540 0.9917 5.1171
v  -1.7651 1.3342 5.4267
v  -3.4360 1.3343 5.1340
v  0.0000 1.3339 5.5370
v  -20.6792 1.7193 5.1461
v  -19.4598 2.6513 3.6214
v  -15.0762 2.8806 4.3644
v  -11.3933 2.4433 4.1155
v  -8.1362 1.6742 3.7416
v  -5.7835 1.3344 4.4526
v  -23.8889 1.3313 2.3542
v  -23.7242 0.9917 2.1862
v  -1.7933 0.9912 5.6615
v  -3.4885 0.9912 5.3646
v  -5.8540 0.9913 4.6784
v  0.0000 0.9912 5.7736
v  -23.7505 1.7184 2.2128
v  -22.4880 2.5799 0.8553
v  -18.1918 2.7967 1.9633
v  -13.9103 2.4019 2.4861
v  -10.6111 1.6764 2.4826
v  -8.0508 1.3342 3.5308
v  -8.1388 0.9913 3.7502
v  -27.0883 1.3314 -0.9569
v  -26.9414 1.7183 -1.0916
v  -26.9149 0.9917 -1.1158
v  -25.6859 2.5016 -2.3038
v  -21.1660 2.7145 -0.6172
v  -16.9536 2.3503 0.2712
v  -13.0364 1.6792 0.9972
v  -10.5097 1.3342 2.2786
v  -10.6143 0.9914 2.4906
v  -30.0829 1.3314 -4.4026
v  -29.9296 1.7206 -4.5302
v  -29.9020 0.9917 -4.5531
v  -28.7191 2.4230 -5.5901
v  -24.3739 2.6253 -3.6234
v  -19.8647 2.2999 -2.1219
v  -16.0205 1.6832 -1.0689
v  -12.9198 1.3341 0.8014
v  -13.0401 0.9914 1.0046
v  -32.9075 1.3312 -7.9502
v  -32.7493 1.7151 -8.0693
v  -32.7195 0.9917 -8.0916
v  -31.6178 2.3378 -8.9680
v  -27.4541 2.5382 -6.7572
v  -23.0853 2.2451 -4.9769
v  -18.8781 1.6840 -3.3139
v  -15.8906 1.3341 -1.2556
v  -16.0251 0.9914 -1.0617
v  -35.6476 1.3309 -11.8135
v  -35.4435 0.9922 -11.9305
v  -35.4697 1.7215 -11.8872
v  -22.1076 1.6774 -6.0569
v  -18.7363 1.3340 -3.4896
v  -18.8843 0.9914 -3.3059
v  -26.2174 2.1973 -7.9631
v  -25.2799 1.6805 -8.9375
v  -21.9607 1.3339 -6.2240
v  -22.1162 0.9914 -6.0467
v  -28.4156 1.6817 -11.9358
v  -29.2899 2.1524 -11.0493
v  -30.4354 2.4493 -9.9841
v  -25.1283 1.3338 -9.0998
v  -25.2890 0.9915 -8.9273
v  -28.2601 1.3336 -12.0957
v  -28.4347 0.9915 -11.9371
v  -32.3979 2.1112 -14.1967
v  -33.1352 2.3485 -13.0677
v  -31.7720 1.6892 -15.1405
v  -34.4353 2.2275 -12.4023
v  -31.6480 1.3333 -15.3202
v  -31.7915 0.9922 -15.1335
v  -33.3637 2.1335 -14.6779
v  -34.2839 2.2227 -14.3023
v  -32.9153 1.6962 -15.8428
v  -34.7904 2.2214 -13.4440
v  -36.0139 1.7237 -13.1134
v  -32.8698 1.3330 -16.0569
v  -32.9121 0.9920 -15.8226
v  -34.1505 1.7072 -15.9384
v  -35.2459 1.7181 -15.3628
v  -35.9518 1.7235 -14.3502
v  -36.2118 1.3309 -13.1256
v  -36.1274 1.3311 -14.4458
v  -35.9734 0.9919 -13.1436
v  -35.3600 1.3316 -15.5259
v  -34.1887 1.3324 -16.1469
v  -34.1224 0.9940 -15.9187
v  -35.1982 0.9928 -15.3581
v  -35.9029 0.9940 -14.3629
v  34.1224 0.9940 -15.9187
v  35.1982 0.9928 -15.3581
v  32.9121 0.9920 -15.8226
v  31.7915 0.9922 -15.1335
v  32.7195 0.9917 -8.0916
v  28.4347 0.9915 -11.9371
v  29.9020 0.9917 -4.5531
v  25.2890 0.9915 -8.9273
v  26.9149 0.9917 -1.1158
v  22.1162 0.9914 -6.0467
v  23.7242 0.9917 2.1862
v  18.8843 0.9914 -3.3059
v  20.6540 0.9917 5.1171
v  16.0251 0.9914 -1.0617
v  17.4260 0.9917 7.8677
v  13.0401 0.9914 1.0046
v  14.5965 0.9917 10.0471
v  10.6143 0.9914 2.4906
v  11.6669 0.9917 11.9811
v  8.1388 0.9913 3.7502
v  8.8113 0.9918 13.5395
v  5.8540 0.9913 4.6784
v  5.8126 0.9919 14.7876
v  3.4885 0.9912 5.3646
v  3.0707 0.9920 15.5810
v  1.7933 0.9912 5.6615
v  3.1168 1.3306 15.8117
v  5.8905 1.3309 15.0095
v  3.0840 1.7295 15.6285
v  5.8306 1.7236 14.8255
v  8.9070 1.3311 13.7548
v  2.6957 3.0152 13.1062
v  5.1478 2.9626 12.4594
v  8.8295 1.7210 13.5730
v  7.9934 2.9013 11.3593
v  11.7795 1.3312 12.1881
v  2.3325 3.1801 10.4273
v  4.4958 3.1349 9.9240
v  11.6861 1.7207 12.0134
v  10.7134 2.8429 9.9677
v  7.1718 3.0758 8.9777
v  14.7243 1.3312 10.2451
v  2.0085 2.5474 7.7220
v  3.9013 2.5347 7.3538
v  14.6179 1.7207 10.0787
v  13.5413 2.7829 8.2087
v  9.7385 3.0157 7.7563
v  6.4053 2.5111 6.5640
v  17.5679 1.3312 8.0555
v  1.7925 1.6702 5.6514
v  3.4869 1.6714 5.3543
v  17.4494 1.7204 7.8986
v  16.2810 2.7233 6.2068
v  12.4443 2.9490 6.1789
v  8.8154 2.4815 5.5121
v  5.8519 1.6728 4.6688
v  20.8077 1.3312 5.2953
v  3.4361 1.3343 5.1340
v  1.7651 1.3342 5.4267
v  20.6792 1.7193 5.1461
v  19.4598 2.6513 3.6214
v  15.0762 2.8806 4.3644
v  11.3933 2.4433 4.1155
v  8.1362 1.6742 3.7416
v  5.7835 1.3344 4.4526
v  23.8889 1.3313 2.3542
v  23.7505 1.7184 2.2128
v  22.4880 2.5799 0.8553
v  18.1918 2.7967 1.9633
v  13.9103 2.4019 2.4861
v  10.6111 1.6764 2.4826
v  8.0508 1.3342 3.5308
v  27.0883 1.3314 -0.9569
v  26.9414 1.7183 -1.0916
v  25.6860 2.5017 -2.3038
v  21.1660 2.7145 -0.6172
v  16.9536 2.3503 0.2712
v  13.0364 1.6792 0.9972
v  10.5097 1.3342 2.2786
v  30.0829 1.3314 -4.4026
v  29.9296 1.7206 -4.5302
v  28.7191 2.4230 -5.5901
v  24.3739 2.6253 -3.6234
v  19.8647 2.2999 -2.1219
v  16.0205 1.6832 -1.0689
v  12.9198 1.3341 0.8014
v  32.9075 1.3312 -7.9502
v  32.7493 1.7151 -8.0693
v  31.6178 2.3378 -8.9680
v  27.4541 2.5382 -6.7572
v  23.0853 2.2451 -4.9769
v  18.8781 1.6840 -3.3139
v  15.8906 1.3341 -1.2556
v  35.4697 1.7215 -11.8872
v  22.1076 1.6774 -6.0569
v  18.7363 1.3340 -3.4896
v  26.2174 2.1973 -7.9631
v  25.2799 1.6805 -8.9375
v  21.9607 1.3339 -6.2240
v  30.4354 2.4493 -9.9841
v  29.2899 2.1524 -11.0493
v  28.4156 1.6817 -11.9358
v  25.1283 1.3338 -9.0998
v  28.2601 1.3336 -12.0957
v  33.1352 2.3485 -13.0677
v  32.3979 2.1112 -14.1967
v  31.7720 1.6892 -15.1405
v  34.4353 2.2275 -12.4023
v  31.6480 1.3333 -15.3202
v  33.3637 2.1335 -14.6779
v  32.9153 1.6962 -15.8428
v  34.2839 2.2227 -14.3023
v  34.7904 2.2214 -13.4440
v  36.0139 1.7237 -13.1134
v  32.8698 1.3330 -16.0569
v  34.1505 1.7072 -15.9384
v  35.2459 1.7181 -15.3628
v  35.9518 1.7235 -14.3502
v  35.3600 1.3316 -15.5259
v  34.1887 1.3324 -16.1469
# 261 vertices

vn 0.9644 -0.2625 0.0322
vn 0.0011 -1.0000 -0.0021
vn 0.0015 -1.0000 -0.0019
vn 0.8789 -0.2781 -0.3876
vn 0.8740 -0.2161 0.4352
vn 0.0008 -1.0000 -0.0021
vn -0.0000 -0.1352 0.9908
vn -0.1581 -0.1339 0.9783
vn -0.0005 -1.0000 0.0027
vn 0.0000 -1.0000 0.0031
vn -0.3114 -0.1321 0.9411
vn -0.0009 -1.0000 0.0025
vn -0.0000 0.9269 0.3753
vn -0.0633 0.9327 0.3551
vn -0.1163 0.9411 0.3176
vn -0.4215 -0.1306 0.8974
vn -0.0012 -1.0000 0.0022
vn -0.0000 0.9809 0.1946
vn -0.0420 0.9927 0.1126
vn -0.0490 0.9946 0.0920
vn -0.1503 0.9434 0.2957
vn -0.0542 0.9954 0.0796
vn -0.5094 -0.1304 0.8506
vn -0.0015 -1.0000 0.0019
vn -0.0000 0.9999 -0.0134
vn -0.0377 0.9969 0.0692
vn -0.0427 0.9966 0.0702
vn -0.1769 0.9447 0.2761
vn -0.0528 0.9967 0.0608
vn -0.0452 0.9973 0.0580
vn -0.5767 -0.1302 0.8065
vn -0.0016 -1.0000 0.0017
vn -0.0000 0.9868 -0.1620
vn 0.0039 0.9883 -0.1526
vn 0.0175 0.9894 -0.1442
vn -0.1956 0.9467 0.2558
vn -0.0446 0.9983 0.0365
vn -0.0421 0.9983 0.0409
vn 0.0320 0.9888 -0.1457
vn -0.6329 -0.1312 0.7631
vn -0.0019 -1.0000 0.0017
vn -0.0000 0.9222 -0.3867
vn 0.0371 0.9228 -0.3836
vn 0.0812 0.9222 -0.3780
vn -0.2117 0.9483 0.2366
vn -0.0360 0.9992 0.0162
vn -0.0252 0.9997 0.0064
vn 0.0432 0.9895 -0.1380
vn 0.1158 0.9203 -0.3737
vn -0.6744 -0.1335 0.7262
vn -0.0019 -1.0000 0.0015
vn 0.1108 -0.2201 -0.9692
vn 0.2295 -0.2213 -0.9478
vn 0.0000 -0.2192 -0.9757
vn -0.2268 0.9476 0.2248
vn -0.0313 0.9995 0.0051
vn -0.0118 0.9998 -0.0166
vn 0.0206 0.9973 -0.0706
vn 0.1456 0.9228 -0.3566
vn 0.3138 -0.2192 -0.9239
vn -0.7120 -0.1381 0.6885
vn -0.0019 -1.0000 0.0011
vn -0.0002 -1.0000 0.0008
vn -0.0003 -1.0000 0.0004
vn -0.0003 -1.0000 -0.0000
vn 0.0000 -1.0000 0.0009
vn -0.2445 0.9451 0.2169
vn -0.0286 0.9996 -0.0013
vn -0.0053 0.9997 -0.0258
vn 0.0205 0.9978 -0.0631
vn 0.1658 0.9288 -0.3315
vn 0.3962 -0.2136 -0.8930
vn -0.0003 -1.0000 -0.0002
vn -0.7460 -0.1444 0.6501
vn -0.2676 0.9398 0.2127
vn -0.0015 -1.0000 0.0004
vn -0.0282 0.9996 -0.0063
vn -0.0006 0.9995 -0.0315
vn 0.0275 0.9973 -0.0678
vn 0.1871 0.9304 -0.3153
vn 0.4649 -0.2059 -0.8611
vn -0.0003 -1.0000 -0.0004
vn -0.7832 -0.1584 0.6013
vn -0.3033 0.9299 0.2079
vn -0.0008 -1.0000 -0.0008
vn -0.0332 0.9994 -0.0122
vn 0.0038 0.9993 -0.0375
vn 0.0334 0.9970 -0.0700
vn 0.2008 0.9315 -0.3034
vn 0.5258 -0.1969 -0.8275
vn -0.0001 -1.0000 -0.0007
vn -0.8270 -0.1837 0.5313
vn -0.3670 0.9092 0.1968
vn -0.0008 -1.0000 -0.0017
vn -0.0612 0.9980 -0.0174
vn 0.0038 0.9990 -0.0448
vn 0.0500 0.9951 -0.0853
vn 0.1671 0.9578 -0.2340
vn 0.5684 -0.1837 -0.8020
vn 0.0000 -1.0000 -0.0010
vn -0.8740 -0.2161 0.4352
vn -0.0008 -1.0000 -0.0021
vn -0.4589 0.8717 0.1717
vn 0.1541 0.9672 -0.2018
vn 0.6067 -0.1660 -0.7774
vn 0.0004 -1.0000 -0.0013
vn 0.0666 0.9922 -0.1053
vn 0.2115 0.9421 -0.2602
vn 0.6331 -0.1643 -0.7565
vn 0.0010 -1.0000 -0.0021
vn 0.2516 0.9157 -0.3134
vn 0.0748 0.9895 -0.1234
vn -0.0042 0.9984 -0.0572
vn 0.6456 -0.1845 -0.7410
vn 0.0023 -1.0000 -0.0038
vn 0.6355 -0.2026 -0.7450
vn 0.0032 -1.0000 -0.0053
vn 0.0835 0.9855 -0.1474
vn -0.0114 0.9976 -0.0677
vn 0.2657 0.8933 -0.3624
vn -0.1110 0.9906 -0.0797
vn 0.5974 -0.2245 -0.7699
vn 0.0017 -1.0000 -0.0044
vn -0.0347 0.9367 -0.3485
vn -0.2247 0.9282 -0.2966
vn 0.1400 0.7368 -0.6615
vn -0.3136 0.9396 -0.1375
vn -0.6657 0.7462 -0.0055
vn 0.2087 -0.2799 -0.9371
vn -0.0004 -1.0000 -0.0027
vn -0.2007 0.7190 -0.6655
vn -0.4150 0.7595 -0.5009
vn -0.6142 0.7219 -0.3189
vn -0.9644 -0.2625 0.0322
vn -0.8789 -0.2781 -0.3876
vn -0.0011 -1.0000 -0.0021
vn -0.6172 -0.2822 -0.7344
vn -0.2255 -0.2913 -0.9297
vn -0.0011 -1.0000 -0.0023
vn -0.0015 -1.0000 -0.0021
vn -0.0015 -1.0000 -0.0019
vn 0.0011 -1.0000 -0.0023
vn 0.0015 -1.0000 -0.0021
vn 0.0004 -1.0000 -0.0027
vn -0.0017 -1.0000 -0.0044
vn 0.0008 -1.0000 -0.0017
vn -0.0032 -1.0000 -0.0053
vn 0.0008 -1.0000 -0.0008
vn -0.0023 -1.0000 -0.0038
vn 0.0015 -1.0000 0.0004
vn -0.0010 -1.0000 -0.0021
vn 0.0019 -1.0000 0.0011
vn -0.0004 -1.0000 -0.0013
vn 0.0019 -1.0000 0.0015
vn 0.0019 -1.0000 0.0017
vn 0.0001 -1.0000 -0.0007
vn 0.0016 -1.0000 0.0018
vn 0.0003 -1.0000 -0.0004
vn 0.0015 -1.0000 0.0020
vn 0.0003 -1.0000 -0.0002
vn 0.0012 -1.0000 0.0022
vn 0.0003 -1.0000 -0.0000
vn 0.0009 -1.0000 0.0025
vn 0.0003 -1.0000 0.0004
vn 0.0005 -1.0000 0.0027
vn 0.0002 -1.0000 0.0008
vn 0.1581 -0.1339 0.9783
vn 0.3114 -0.1321 0.9411
vn 0.0633 0.9327 0.3551
vn 0.1163 0.9410 0.3177
vn 0.4215 -0.1306 0.8974
vn 0.0420 0.9927 0.1126
vn 0.0490 0.9946 0.0920
vn 0.1503 0.9433 0.2958
vn 0.0542 0.9954 0.0796
vn 0.5094 -0.1304 0.8506
vn 0.0377 0.9969 0.0691
vn 0.0427 0.9966 0.0701
vn 0.1769 0.9447 0.2760
vn 0.0528 0.9967 0.0609
vn 0.0452 0.9973 0.0580
vn 0.5767 -0.1302 0.8065
vn -0.0039 0.9883 -0.1525
vn -0.0175 0.9894 -0.1443
vn 0.1956 0.9467 0.2558
vn 0.0446 0.9983 0.0365
vn 0.0421 0.9983 0.0409
vn -0.0320 0.9888 -0.1457
vn 0.6329 -0.1312 0.7631
vn -0.0371 0.9228 -0.3836
vn -0.0812 0.9222 -0.3780
vn 0.2117 0.9483 0.2366
vn 0.0360 0.9992 0.0162
vn 0.0252 0.9997 0.0064
vn -0.0432 0.9895 -0.1380
vn -0.1158 0.9203 -0.3737
vn 0.6744 -0.1335 0.7262
vn -0.2295 -0.2213 -0.9478
vn -0.1108 -0.2201 -0.9692
vn 0.2268 0.9476 0.2248
vn 0.0313 0.9995 0.0051
vn 0.0118 0.9998 -0.0166
vn -0.0206 0.9973 -0.0706
vn -0.1456 0.9228 -0.3566
vn -0.3138 -0.2192 -0.9239
vn 0.7120 -0.1381 0.6885
vn 0.2445 0.9451 0.2169
vn 0.0286 0.9996 -0.0013
vn 0.0053 0.9997 -0.0258
vn -0.0205 0.9978 -0.0631
vn -0.1658 0.9288 -0.3315
vn -0.3962 -0.2136 -0.8930
vn 0.7460 -0.1444 0.6501
vn 0.2676 0.9398 0.2127
vn 0.0282 0.9996 -0.0063
vn 0.0006 0.9995 -0.0315
vn -0.0275 0.9973 -0.0678
vn -0.1871 0.9304 -0.3153
vn -0.4649 -0.2059 -0.8611
vn 0.7832 -0.1584 0.6013
vn 0.3033 0.9299 0.2079
vn 0.0332 0.9994 -0.0122
vn -0.0038 0.9993 -0.0375
vn -0.0334 0.9970 -0.0700
vn -0.2008 0.9315 -0.3034
vn -0.5258 -0.1969 -0.8275
vn 0.8270 -0.1837 0.5313
vn 0.3670 0.9092 0.1968
vn 0.0612 0.9980 -0.0174
vn -0.0038 0.9990 -0.0448
vn -0.0500 0.9951 -0.0853
vn -0.1671 0.9578 -0.2340
vn -0.5684 -0.1837 -0.8020
vn 0.4589 0.8717 0.1717
vn -0.1541 0.9672 -0.2018
vn -0.6067 -0.1660 -0.7774
vn -0.0666 0.9922 -0.1053
vn -0.2115 0.9421 -0.2602
vn -0.6331 -0.1643 -0.7565
vn 0.0042 0.9984 -0.0572
vn -0.0748 0.9895 -0.1234
vn -0.2516 0.9157 -0.3134
vn -0.6456 -0.1845 -0.7410
vn -0.6355 -0.2026 -0.7450
vn 0.0114 0.9976 -0.0677
vn -0.0835 0.9855 -0.1474
vn -0.2657 0.8933 -0.3624
vn 0.1110 0.9906 -0.0797
vn -0.5974 -0.2245 -0.7699
vn 0.0347 0.9367 -0.3485
vn -0.1400 0.7368 -0.6615
vn 0.2247 0.9282 -0.2966
vn 0.3136 0.9396 -0.1375
vn 0.6657 0.7462 -0.0055
vn -0.2087 -0.2799 -0.9371
vn 0.2007 0.7190 -0.6655
vn 0.4150 0.7595 -0.5009
vn 0.6142 0.7219 -0.3189
vn 0.6172 -0.2822 -0.7344
vn 0.2255 -0.2913 -0.9297
# 260 vertex normals

vt 0.0225 0.6923 0.0000
vt 0.0186 0.6941 0.0000
vt 0.0151 0.6772 0.0000
vt 0.0195 0.6775 0.0000
vt 0.0324 0.7061 0.0000
vt 0.0288 0.7092 0.0000
vt 0.4996 0.9317 0.0000
vt 0.5335 0.9288 0.0000
vt 0.5341 0.9335 0.0000
vt 0.4996 0.9364 0.0000
vt 0.5643 0.9221 0.0000
vt 0.5654 0.9267 0.0000
vt 0.4996 0.9266 0.0000
vt 0.5329 0.9238 0.0000
vt 0.5632 0.9172 0.0000
vt 0.5986 0.9116 0.0000
vt 0.6001 0.9161 0.0000
vt 0.4996 0.8930 0.0000
vt 0.5294 0.8911 0.0000
vt 0.5569 0.8859 0.0000
vt 0.5971 0.9067 0.0000
vt 0.5896 0.8770 0.0000
vt 0.6323 0.8987 0.0000
vt 0.6341 0.9031 0.0000
vt 0.4996 0.8613 0.0000
vt 0.5264 0.8599 0.0000
vt 0.5515 0.8559 0.0000
vt 0.6305 0.8940 0.0000
vt 0.6219 0.8660 0.0000
vt 0.5833 0.8484 0.0000
vt 0.6680 0.8830 0.0000
vt 0.6701 0.8873 0.0000
vt 0.4996 0.8284 0.0000
vt 0.5237 0.8276 0.0000
vt 0.5467 0.8248 0.0000
vt 0.6661 0.8784 0.0000
vt 0.6567 0.8522 0.0000
vt 0.6145 0.8389 0.0000
vt 0.5775 0.8188 0.0000
vt 0.7040 0.8656 0.0000
vt 0.7062 0.8698 0.0000
vt 0.4996 0.8022 0.0000
vt 0.5221 0.8015 0.0000
vt 0.5435 0.7993 0.0000
vt 0.7019 0.8610 0.0000
vt 0.6917 0.8366 0.0000
vt 0.6485 0.8267 0.0000
vt 0.6078 0.8109 0.0000
vt 0.5735 0.7943 0.0000
vt 0.7465 0.8438 0.0000
vt 0.7488 0.8480 0.0000
vt 0.5217 0.7968 0.0000
vt 0.5429 0.7947 0.0000
vt 0.4996 0.7974 0.0000
vt 0.7442 0.8393 0.0000
vt 0.7337 0.8167 0.0000
vt 0.6826 0.8127 0.0000
vt 0.6409 0.8003 0.0000
vt 0.6029 0.7875 0.0000
vt 0.5727 0.7897 0.0000
vt 0.7888 0.8207 0.0000
vt 0.7911 0.8249 0.0000
vt 0.5214 0.7920 0.0000
vt 0.5422 0.7899 0.0000
vt 0.5716 0.7850 0.0000
vt 0.4996 0.7927 0.0000
vt 0.7863 0.8163 0.0000
vt 0.7753 0.7954 0.0000
vt 0.7241 0.7945 0.0000
vt 0.6740 0.7880 0.0000
vt 0.6353 0.7783 0.0000
vt 0.6019 0.7829 0.0000
vt 0.6005 0.7783 0.0000
vt 0.8342 0.7947 0.0000
vt 0.8316 0.7904 0.0000
vt 0.8366 0.7988 0.0000
vt 0.8206 0.7712 0.0000
vt 0.7651 0.7749 0.0000
vt 0.7150 0.7714 0.0000
vt 0.6676 0.7674 0.0000
vt 0.6340 0.7737 0.0000
vt 0.6325 0.7692 0.0000
vt 0.8787 0.7676 0.0000
vt 0.8759 0.7634 0.0000
vt 0.8813 0.7716 0.0000
vt 0.8652 0.7461 0.0000
vt 0.8105 0.7521 0.0000
vt 0.7553 0.7535 0.0000
vt 0.7080 0.7523 0.0000
vt 0.6661 0.7629 0.0000
vt 0.6644 0.7584 0.0000
vt 0.9226 0.7394 0.0000
vt 0.9196 0.7354 0.0000
vt 0.9256 0.7432 0.0000
vt 0.9090 0.7203 0.0000
vt 0.8553 0.7286 0.0000
vt 0.8007 0.7324 0.0000
vt 0.7477 0.7359 0.0000
vt 0.7063 0.7478 0.0000
vt 0.7045 0.7433 0.0000
vt 0.9668 0.7061 0.0000
vt 0.9703 0.7092 0.0000
vt 0.9628 0.7030 0.0000
vt 0.7933 0.7159 0.0000
vt 0.7458 0.7314 0.0000
vt 0.7440 0.7270 0.0000
vt 0.8460 0.7103 0.0000
vt 0.8389 0.6950 0.0000
vt 0.7914 0.7116 0.0000
vt 0.7895 0.7072 0.0000
vt 0.8848 0.6735 0.0000
vt 0.8909 0.6878 0.0000
vt 0.8995 0.7045 0.0000
vt 0.8370 0.6907 0.0000
vt 0.8350 0.6863 0.0000
vt 0.8831 0.6690 0.0000
vt 0.8815 0.6644 0.0000
vt 0.9367 0.6666 0.0000
vt 0.9397 0.6819 0.0000
vt 0.9349 0.6528 0.0000
vt 0.9516 0.6937 0.0000
vt 0.9342 0.6480 0.0000
vt 0.9333 0.6434 0.0000
vt 0.9485 0.6659 0.0000
vt 0.9563 0.6734 0.0000
vt 0.9499 0.6513 0.0000
vt 0.9585 0.6840 0.0000
vt 0.9718 0.6910 0.0000
vt 0.9510 0.6467 0.0000
vt 0.9514 0.6424 0.0000
vt 0.9625 0.6558 0.0000
vt 0.9714 0.6655 0.0000
vt 0.9747 0.6781 0.0000
vt 0.9766 0.6923 0.0000
vt 0.9796 0.6775 0.0000
vt 0.9805 0.6941 0.0000
vt 0.9755 0.6629 0.0000
vt 0.9653 0.6518 0.0000
vt 0.9676 0.6481 0.0000
vt 0.9795 0.6605 0.0000
vt 0.9840 0.6772 0.0000
vt 0.4660 0.7734 0.0000
vt 0.4807 0.6591 0.0000
vt 0.5014 0.6604 0.0000
vt 0.5014 0.7772 0.0000
vt 0.4344 0.7643 0.0000
vt 0.4611 0.6557 0.0000
vt 0.3998 0.7499 0.0000
vt 0.4339 0.6478 0.0000
vt 0.3669 0.7320 0.0000
vt 0.4075 0.6371 0.0000
vt 0.3332 0.7097 0.0000
vt 0.3790 0.6226 0.0000
vt 0.3005 0.6846 0.0000
vt 0.3510 0.6055 0.0000
vt 0.2633 0.6529 0.0000
vt 0.3166 0.5817 0.0000
vt 0.2279 0.6192 0.0000
vt 0.2836 0.5559 0.0000
vt 0.1911 0.5812 0.0000
vt 0.2463 0.5243 0.0000
vt 0.1566 0.5416 0.0000
vt 0.2097 0.4911 0.0000
vt 0.1241 0.5009 0.0000
vt 0.1735 0.4565 0.0000
vt 0.0927 0.4567 0.0000
vt 0.1347 0.4197 0.0000
vt 0.9154 0.4286 0.0000
vt 0.8949 0.4107 0.0000
vt 0.9072 0.4172 0.0000
vt 0.9162 0.4427 0.0000
vt 0.8809 0.4118 0.0000
vt 0.9100 0.4567 0.0000
vt 0.8680 0.4197 0.0000
vt 0.8786 0.5009 0.0000
vt 0.8293 0.4565 0.0000
vt 0.8461 0.5416 0.0000
vt 0.7930 0.4911 0.0000
vt 0.8116 0.5812 0.0000
vt 0.7564 0.5243 0.0000
vt 0.7748 0.6192 0.0000
vt 0.7191 0.5559 0.0000
vt 0.7394 0.6530 0.0000
vt 0.6861 0.5817 0.0000
vt 0.7022 0.6846 0.0000
vt 0.6517 0.6055 0.0000
vt 0.6696 0.7097 0.0000
vt 0.6237 0.6226 0.0000
vt 0.6358 0.7320 0.0000
vt 0.5952 0.6371 0.0000
vt 0.6029 0.7499 0.0000
vt 0.5688 0.6478 0.0000
vt 0.5683 0.7643 0.0000
vt 0.5416 0.6557 0.0000
vt 0.5367 0.7734 0.0000
vt 0.5220 0.6591 0.0000
vt 0.4650 0.9335 0.0000
vt 0.4656 0.9288 0.0000
vt 0.4337 0.9267 0.0000
vt 0.4348 0.9221 0.0000
vt 0.4662 0.9238 0.0000
vt 0.4359 0.9172 0.0000
vt 0.3990 0.9161 0.0000
vt 0.4005 0.9116 0.0000
vt 0.4698 0.8911 0.0000
vt 0.4422 0.8859 0.0000
vt 0.4020 0.9067 0.0000
vt 0.4095 0.8770 0.0000
vt 0.3650 0.9031 0.0000
vt 0.3669 0.8987 0.0000
vt 0.4727 0.8599 0.0000
vt 0.4476 0.8559 0.0000
vt 0.3686 0.8940 0.0000
vt 0.3772 0.8660 0.0000
vt 0.4159 0.8484 0.0000
vt 0.3290 0.8873 0.0000
vt 0.3311 0.8830 0.0000
vt 0.4754 0.8276 0.0000
vt 0.4524 0.8248 0.0000
vt 0.3331 0.8784 0.0000
vt 0.3425 0.8522 0.0000
vt 0.3846 0.8389 0.0000
vt 0.4216 0.8188 0.0000
vt 0.2929 0.8698 0.0000
vt 0.2951 0.8656 0.0000
vt 0.4771 0.8015 0.0000
vt 0.4556 0.7993 0.0000
vt 0.2973 0.8610 0.0000
vt 0.3075 0.8366 0.0000
vt 0.3506 0.8267 0.0000
vt 0.3913 0.8109 0.0000
vt 0.4256 0.7943 0.0000
vt 0.2503 0.8480 0.0000
vt 0.2526 0.8438 0.0000
vt 0.4563 0.7947 0.0000
vt 0.4774 0.7968 0.0000
vt 0.2549 0.8393 0.0000
vt 0.2654 0.8167 0.0000
vt 0.3165 0.8127 0.0000
vt 0.3582 0.8003 0.0000
vt 0.3962 0.7875 0.0000
vt 0.4265 0.7897 0.0000
vt 0.2080 0.8249 0.0000
vt 0.2104 0.8207 0.0000
vt 0.4570 0.7899 0.0000
vt 0.4777 0.7920 0.0000
vt 0.4275 0.7850 0.0000
vt 0.2128 0.8163 0.0000
vt 0.2238 0.7954 0.0000
vt 0.2750 0.7945 0.0000
vt 0.3251 0.7880 0.0000
vt 0.3638 0.7783 0.0000
vt 0.3973 0.7829 0.0000
vt 0.3986 0.7783 0.0000
vt 0.1625 0.7988 0.0000
vt 0.1650 0.7947 0.0000
vt 0.1675 0.7904 0.0000
vt 0.1785 0.7712 0.0000
vt 0.2340 0.7749 0.0000
vt 0.2841 0.7714 0.0000
vt 0.3315 0.7674 0.0000
vt 0.3651 0.7737 0.0000
vt 0.3667 0.7692 0.0000
vt 0.1204 0.7676 0.0000
vt 0.1232 0.7634 0.0000
vt 0.1178 0.7716 0.0000
vt 0.1340 0.7461 0.0000
vt 0.1886 0.7521 0.0000
vt 0.2439 0.7535 0.0000
vt 0.2911 0.7523 0.0000
vt 0.3330 0.7629 0.0000
vt 0.3347 0.7584 0.0000
vt 0.0765 0.7394 0.0000
vt 0.0796 0.7354 0.0000
vt 0.0736 0.7432 0.0000
vt 0.0901 0.7203 0.0000
vt 0.1438 0.7286 0.0000
vt 0.1984 0.7324 0.0000
vt 0.2514 0.7359 0.0000
vt 0.2928 0.7478 0.0000
vt 0.2946 0.7433 0.0000
vt 0.0363 0.7030 0.0000
vt 0.2059 0.7159 0.0000
vt 0.2533 0.7314 0.0000
vt 0.2552 0.7270 0.0000
vt 0.1532 0.7103 0.0000
vt 0.1603 0.6950 0.0000
vt 0.2078 0.7116 0.0000
vt 0.2097 0.7072 0.0000
vt 0.0996 0.7045 0.0000
vt 0.1082 0.6878 0.0000
vt 0.1143 0.6735 0.0000
vt 0.1622 0.6907 0.0000
vt 0.1641 0.6863 0.0000
vt 0.1161 0.6690 0.0000
vt 0.1176 0.6644 0.0000
vt 0.0594 0.6819 0.0000
vt 0.0624 0.6666 0.0000
vt 0.0643 0.6528 0.0000
vt 0.0475 0.6937 0.0000
vt 0.0650 0.6480 0.0000
vt 0.0658 0.6434 0.0000
vt 0.0506 0.6659 0.0000
vt 0.0492 0.6513 0.0000
vt 0.0428 0.6734 0.0000
vt 0.0406 0.6840 0.0000
vt 0.0274 0.6910 0.0000
vt 0.0481 0.6467 0.0000
vt 0.0477 0.6424 0.0000
vt 0.0366 0.6558 0.0000
vt 0.0278 0.6655 0.0000
vt 0.0244 0.6781 0.0000
vt 0.0237 0.6629 0.0000
vt 0.0339 0.6518 0.0000
vt 0.0315 0.6481 0.0000
vt 0.0196 0.6605 0.0000
vt 0.0866 0.4427 0.0000
vt 0.1218 0.4118 0.0000
vt 0.0874 0.4286 0.0000
vt 0.1079 0.4107 0.0000
vt 0.0955 0.4172 0.0000
# 321 texture coords

o boomerang
g boomerang
usemtl boomerang
s 1
f 1/1/1 2/2/2 3/3/3 4/4/4 
f 1/1/1 5/5/5 6/6/6 2/2/2 
f 7/7/7 8/8/8 9/9/9 10/10/10 
f 8/8/8 11/11/11 12/12/12 9/9/9 
f 7/7/7 13/13/13 14/14/14 8/8/8 
f 8/8/8 14/14/14 15/15/15 11/11/11 
f 11/11/11 16/16/16 17/17/17 12/12/12 
f 18/18/18 19/19/19 14/14/14 13/13/13 
f 19/19/19 20/20/20 15/15/15 14/14/14 
f 21/21/21 16/16/16 11/11/11 15/15/15 
f 20/20/20 22/22/22 21/21/21 15/15/15 
f 16/16/16 23/23/23 24/24/24 17/17/17 
f 25/25/25 26/26/26 19/19/19 18/18/18 
f 26/26/26 27/27/27 20/20/20 19/19/19 
f 28/28/28 23/23/23 16/16/16 21/21/21 
f 22/22/22 29/29/29 28/28/28 21/21/21 
f 27/27/27 30/30/30 22/22/22 20/20/20 
f 23/23/23 31/31/31 32/32/32 24/24/24 
f 33/33/33 34/34/34 26/26/26 25/25/25 
f 34/34/34 35/35/35 27/27/27 26/26/26 
f 23/23/23 28/28/28 36/36/36 31/31/31 
f 29/29/29 37/37/37 36/36/36 28/28/28 
f 30/30/30 38/38/38 29/29/29 22/22/22 
f 35/35/35 39/39/39 30/30/30 27/27/27 
f 31/31/31 40/40/40 41/41/41 32/32/32 
f 42/42/42 43/43/43 34/34/34 33/33/33 
f 43/43/43 44/44/44 35/35/35 34/34/34 
f 31/31/31 36/36/36 45/45/45 40/40/40 
f 45/45/45 36/36/36 37/37/37 46/46/46 
f 38/38/38 47/47/47 37/37/37 29/29/29 
f 39/39/39 48/48/48 38/38/38 30/30/30 
f 44/44/44 49/49/49 39/39/39 35/35/35 
f 40/40/40 50/50/50 51/51/51 41/41/41 
f 43/43/43 52/52/52 53/53/53 44/44/44 
f 42/42/42 54/54/54 52/52/52 43/43/43 
f 40/40/40 45/45/45 55/55/55 50/50/50 
f 55/55/55 45/45/45 46/46/46 56/56/56 
f 47/47/47 57/57/57 46/46/46 37/37/37 
f 48/48/48 58/58/58 47/47/47 38/38/38 
f 49/49/49 59/59/59 48/48/48 39/39/39 
f 44/44/44 53/53/53 60/60/60 49/49/49 
f 50/50/50 61/61/61 62/62/62 51/51/51 
f 63/63/63 64/64/64 53/53/53 52/52/52 
f 64/64/64 65/65/65 60/60/60 53/53/53 
f 66/66/66 63/63/63 52/52/52 54/54/54 
f 50/50/50 55/55/55 67/67/67 61/61/61 
f 67/67/67 55/55/55 56/56/56 68/68/68 
f 57/57/57 69/69/69 56/56/56 46/46/46 
f 58/58/58 70/70/70 57/57/57 47/47/47 
f 59/59/59 71/71/71 58/58/58 48/48/48 
f 49/49/49 60/60/60 72/72/72 59/59/59 
f 65/65/65 73/73/73 72/72/72 60/60/60 
f 74/74/74 61/61/61 67/67/67 75/75/75 
f 74/74/74 76/76/76 62/62/62 61/61/61 
f 68/68/68 77/77/77 75/75/75 67/67/67 
f 69/69/69 78/78/78 68/68/68 56/56/56 
f 70/70/70 79/79/79 69/69/69 57/57/57 
f 71/71/71 80/80/80 70/70/70 58/58/58 
f 59/59/59 72/72/72 81/81/81 71/71/71 
f 73/73/73 82/82/82 81/81/81 72/72/72 
f 83/83/83 74/74/74 75/75/75 84/84/84 
f 83/83/83 85/85/85 76/76/76 74/74/74 
f 77/77/77 86/86/86 84/84/84 75/75/75 
f 78/78/78 87/87/87 77/77/77 68/68/68 
f 79/79/79 88/88/88 78/78/78 69/69/69 
f 80/80/80 89/89/89 79/79/79 70/70/70 
f 71/71/71 81/81/81 90/90/90 80/80/80 
f 90/90/90 81/81/81 82/82/82 91/91/91 
f 92/92/92 83/83/83 84/84/84 93/93/93 
f 92/92/92 94/94/94 85/85/85 83/83/83 
f 93/93/93 84/84/84 86/86/86 95/95/95 
f 87/87/87 96/96/96 86/86/86 77/77/77 
f 88/88/88 97/97/97 87/87/87 78/78/78 
f 89/89/89 98/98/98 88/88/88 79/79/79 
f 80/80/80 90/90/90 99/99/99 89/89/89 
f 99/99/99 90/90/90 91/91/91 100/100/100 
f 101/101/101 102/102/102 94/94/94 92/92/92 
f 101/101/101 92/92/92 93/93/93 103/103/103 
f 98/98/98 104/104/104 97/97/97 88/88/88 
f 89/89/89 99/99/99 105/105/105 98/98/98 
f 105/105/105 99/99/99 100/100/100 106/106/106 
f 107/107/107 96/96/96 87/87/87 97/97/97 
f 97/97/97 104/104/104 108/108/108 107/107/107 
f 109/109/109 104/104/104 98/98/98 105/105/105 
f 109/109/109 105/105/105 106/106/106 110/110/110 
f 108/108/108 111/111/111 112/112/112 107/107/107 
f 112/112/112 113/113/113 96/96/96 107/107/107 
f 104/104/104 109/109/109 114/114/114 108/108/108 
f 114/114/114 109/109/109 110/110/110 115/115/115 
f 116/116/116 111/111/111 108/108/108 114/114/114 
f 116/116/116 114/114/114 115/115/115 117/117/117 
f 113/113/113 95/95/95 86/86/86 96/96/96 
f 112/112/112 118/118/118 119/119/119 113/113/113 
f 111/111/111 120/120/120 118/118/118 112/112/112 
f 119/119/119 121/121/121 95/95/95 113/113/113 
f 122/122/122 120/120/120 111/111/111 116/116/116 
f 122/122/122 116/116/116 117/117/117 123/123/123 
f 124/124/124 125/125/125 119/119/119 118/118/118 
f 120/120/120 126/126/126 124/124/124 118/118/118 
f 121/121/121 103/103/103 93/93/93 95/95/95 
f 119/119/119 125/125/125 127/127/127 121/121/121 
f 127/127/127 128/128/128 103/103/103 121/121/121 
f 129/129/129 126/126/126 120/120/120 122/122/122 
f 123/123/123 130/130/130 129/129/129 122/122/122 
f 131/131/131 132/132/132 125/125/125 124/124/124 
f 124/124/124 126/126/126 131/131/131 
f 125/125/125 132/132/132 133/133/133 127/127/127 
f 127/127/127 133/133/133 128/128/128 
f 134/134/134 101/101/101 103/103/103 128/128/128 
f 133/133/133 135/135/135 134/134/134 128/128/128 
f 134/134/134 136/136/136 102/102/102 101/101/101 
f 132/132/132 137/137/137 135/135/135 133/133/133 
f 138/138/138 131/131/131 126/126/126 129/129/129 
f 138/138/138 137/137/137 132/132/132 131/131/131 
f 139/139/139 138/138/138 129/129/129 130/130/130 
f 140/140/140 137/137/137 138/138/138 139/139/139 
f 140/140/140 141/141/141 135/135/135 137/137/137 
f 141/141/141 136/136/136 134/134/134 135/135/135 
f 9/142/9 63/143/63 66/144/66 10/145/10 
f 12/146/12 64/147/64 63/143/63 9/142/9 
f 17/148/17 65/149/65 64/147/64 12/146/12 
f 24/150/24 73/151/73 65/149/65 17/148/17 
f 32/152/32 82/153/82 73/151/73 24/150/24 
f 41/154/41 91/155/91 82/153/82 32/152/32 
f 51/156/51 100/157/100 91/155/91 41/154/41 
f 62/158/62 106/159/106 100/157/100 51/156/51 
f 76/160/76 110/161/110 106/159/106 62/158/62 
f 85/162/85 115/163/115 110/161/110 76/160/76 
f 94/164/94 117/165/117 115/163/115 85/162/85 
f 102/166/102 123/167/123 117/165/117 94/164/94 
f 3/168/3 142/169/142 143/170/143 
f 3/168/3 2/171/2 144/172/144 142/169/142 
f 2/171/2 6/173/6 145/174/145 144/172/144 
f 6/173/6 146/175/146 147/176/147 145/174/145 
f 146/175/146 148/177/148 149/178/149 147/176/147 
f 148/177/148 150/179/150 151/180/151 149/178/149 
f 150/179/150 152/181/152 153/182/153 151/180/151 
f 152/181/152 154/183/154 155/184/100 153/182/153 
f 154/183/154 156/185/155 157/186/156 155/184/100 
f 156/185/155 158/187/157 159/188/158 157/186/156 
f 158/187/157 160/189/159 161/190/160 159/188/158 
f 160/189/159 162/191/161 163/192/162 161/190/160 
f 162/191/161 164/193/163 165/194/164 163/192/162 
f 164/193/163 166/195/165 167/196/166 165/194/164 
f 166/195/165 10/145/10 66/144/66 167/196/166 
f 166/197/165 168/198/167 7/7/7 10/10/10 
f 164/199/163 169/200/168 168/198/167 166/197/165 
f 170/201/169 13/13/13 7/7/7 168/198/167 
f 168/198/167 169/200/168 171/202/170 170/201/169 
f 162/203/161 172/204/171 169/200/168 164/199/163 
f 170/201/169 173/205/172 18/18/18 13/13/13 
f 171/202/170 174/206/173 173/205/172 170/201/169 
f 175/207/174 171/202/170 169/200/168 172/204/171 
f 175/207/174 176/208/175 174/206/173 171/202/170 
f 160/209/159 177/210/176 172/204/171 162/203/161 
f 173/205/172 178/211/177 25/25/25 18/18/18 
f 174/206/173 179/212/178 178/211/177 173/205/172 
f 172/204/171 177/210/176 180/213/179 175/207/174 
f 180/213/179 181/214/180 176/208/175 175/207/174 
f 176/208/175 182/215/181 179/212/178 174/206/173 
f 158/216/157 183/217/182 177/210/176 160/209/159 
f 178/211/177 184/218/183 33/33/33 25/25/25 
f 179/212/178 185/219/184 184/218/183 178/211/177 
f 186/220/185 180/213/179 177/210/176 183/217/182 
f 186/220/185 187/221/186 181/214/180 180/213/179 
f 181/214/180 188/222/187 182/215/181 176/208/175 
f 182/215/181 189/223/188 185/219/184 179/212/178 
f 156/224/155 190/225/189 183/217/182 158/216/157 
f 184/218/183 191/226/190 42/42/42 33/33/33 
f 185/219/184 192/227/191 191/226/190 184/218/183 
f 193/228/192 186/220/185 183/217/182 190/225/189 
f 193/228/192 194/229/193 187/221/186 186/220/185 
f 187/221/186 195/230/194 188/222/187 181/214/180 
f 188/222/187 196/231/195 189/223/188 182/215/181 
f 189/223/188 197/232/196 192/227/191 185/219/184 
f 154/233/154 198/234/197 190/225/189 156/224/155 
f 199/235/198 200/236/199 191/226/190 192/227/191 
f 200/236/199 54/54/54 42/42/42 191/226/190 
f 201/237/200 193/228/192 190/225/189 198/234/197 
f 201/237/200 202/238/201 194/229/193 193/228/192 
f 194/229/193 203/239/202 195/230/194 187/221/186 
f 195/230/194 204/240/203 196/231/195 188/222/187 
f 196/231/195 205/241/204 197/232/196 189/223/188 
f 192/227/191 197/232/196 206/242/205 199/235/198 
f 152/243/152 207/244/206 198/234/197 154/233/154 
f 199/235/198 165/245/164 167/246/166 200/236/199 
f 206/242/205 163/247/162 165/245/164 199/235/198 
f 200/236/199 167/246/166 66/66/66 54/54/54 
f 208/248/207 201/237/200 198/234/197 207/244/206 
f 208/248/207 209/249/208 202/238/201 201/237/200 
f 202/238/201 210/250/209 203/239/202 194/229/193 
f 203/239/202 211/251/210 204/240/203 195/230/194 
f 204/240/203 212/252/211 205/241/204 196/231/195 
f 213/253/212 206/242/205 197/232/196 205/241/204 
f 213/253/212 161/254/160 163/247/162 206/242/205 
f 152/243/152 150/255/150 214/256/213 207/244/206 
f 214/256/213 215/257/214 208/248/207 207/244/206 
f 215/257/214 216/258/215 209/249/208 208/248/207 
f 209/249/208 217/259/216 210/250/209 202/238/201 
f 210/250/209 218/260/217 211/251/210 203/239/202 
f 211/251/210 219/261/218 212/252/211 204/240/203 
f 220/262/219 213/253/212 205/241/204 212/252/211 
f 220/262/219 159/263/158 161/254/160 213/253/212 
f 221/264/220 222/265/221 215/257/214 214/256/213 
f 150/255/150 148/266/148 221/264/220 214/256/213 
f 222/265/221 223/267/222 216/258/215 215/257/214 
f 216/258/215 224/268/223 217/259/216 209/249/208 
f 217/259/216 225/269/224 218/260/217 210/250/209 
f 218/260/217 226/270/225 219/261/218 211/251/210 
f 227/271/226 220/262/219 212/252/211 219/261/218 
f 227/271/226 157/272/156 159/263/158 220/262/219 
f 228/273/227 229/274/228 222/265/221 221/264/220 
f 148/266/148 146/275/146 228/273/227 221/264/220 
f 229/274/228 230/276/229 223/267/222 222/265/221 
f 223/267/222 231/277/230 224/268/223 216/258/215 
f 224/268/223 232/278/231 225/269/224 217/259/216 
f 225/269/224 233/279/232 226/270/225 218/260/217 
f 234/280/233 227/271/226 219/261/218 226/270/225 
f 234/280/233 155/281/100 157/272/156 227/271/226 
f 146/275/146 6/6/6 5/5/5 228/273/227 
f 5/5/5 235/282/234 229/274/228 228/273/227 
f 232/278/231 236/283/235 233/279/232 225/269/224 
f 226/270/225 233/279/232 237/284/236 234/280/233 
f 237/284/236 153/285/153 155/281/100 234/280/233 
f 224/268/223 231/277/230 238/286/237 232/278/231 
f 232/278/231 238/286/237 239/287/238 236/283/235 
f 240/288/239 237/284/236 233/279/232 236/283/235 
f 240/288/239 151/289/151 153/285/153 237/284/236 
f 231/277/230 241/290/240 242/291/241 238/286/237 
f 242/291/241 243/292/242 239/287/238 238/286/237 
f 244/293/243 240/288/239 236/283/235 239/287/238 
f 244/293/243 149/294/149 151/289/151 240/288/239 
f 239/287/238 243/292/242 245/295/244 244/293/243 
f 245/295/244 147/296/147 149/294/149 244/293/243 
f 223/267/222 230/276/229 241/290/240 231/277/230 
f 246/297/245 247/298/246 242/291/241 241/290/240 
f 247/298/246 248/299/247 243/292/242 242/291/241 
f 230/276/229 249/300/248 246/297/245 241/290/240 
f 250/301/249 145/302/145 147/296/147 245/295/244 
f 243/292/242 248/299/247 250/301/249 245/295/244 
f 251/303/250 252/304/251 248/299/247 247/298/246 
f 251/303/250 247/298/246 246/297/245 253/305/252 
f 229/274/228 235/282/234 249/300/248 230/276/229 
f 246/297/245 249/300/248 254/306/253 253/305/252 
f 235/282/234 255/307/254 254/306/253 249/300/248 
f 1/1/1 255/307/254 235/282/234 5/5/5 
f 248/299/247 252/304/251 256/308/255 250/301/249 
f 256/308/255 144/309/144 145/302/145 250/301/249 
f 251/303/250 257/310/256 252/304/251 
f 253/305/252 258/311/257 257/310/256 251/303/250 
f 1/1/1 4/4/4 259/312/258 255/307/254 
f 258/311/257 259/312/258 4/4/4 260/313/259 
f 253/305/252 254/306/253 259/312/258 258/311/257 
f 254/306/253 255/307/254 259/312/258 
f 258/311/257 260/313/259 261/314/260 257/310/256 
f 261/314/260 256/308/255 252/304/251 257/310/256 
f 256/308/255 261/314/260 142/315/142 144/309/144 
f 143/316/143 142/315/142 261/314/260 260/313/259 
f 4/4/4 3/3/3 143/316/143 260/313/259 
f 123/167/123 102/166/102 136/317/136 130/318/130 
f 141/319/141 139/320/139 130/318/130 136/317/136 
f 139/320/139 141/319/141 140/321/140 
# 256 polygons - 6 triangles

